<svg width="288" height="246" viewBox="0 0 288 246" fill="none" xmlns="http://www.w3.org/2000/svg">
<path d="M287.556 0.626939L144.196 245.342C144.196 245.342 143.778 245.551 143.569 245.342L0 0.626939V0C0.20898 0 0.417959 0 0.417959 0H287.138C287.138 0 287.556 0 287.556 0.417959C287.556 0.417959 287.556 0.417959 287.556 0.626939ZM272.509 9.61306C272.509 9.61306 272.509 8.98612 272.509 8.77714C272.509 8.77714 272.509 8.77714 272.3 8.77714H15.4645C15.4645 8.77714 14.8376 8.98612 14.8376 9.40408C14.8376 9.40408 14.8376 9.40408 14.8376 9.61306L143.151 228.624C143.151 228.624 143.569 229.042 143.987 228.624L272.509 9.61306Z" fill="white"/>
</svg>
