<svg width="245" height="245" viewBox="0 0 245 245" fill="none" xmlns="http://www.w3.org/2000/svg">
<g id="Pasted-20231114-231204 1" clip-path="url(#clip0_831_1067)">
<path id="Vector" d="M121.356 0H123.701C130.793 1.02402 136.865 6.34512 136.875 13.9248C136.884 22.034 136.886 30.1114 136.879 38.1568C136.879 38.2449 136.899 38.332 136.938 38.4116C136.977 38.4912 137.034 38.5612 137.104 38.6162C141.899 42.3486 144.402 46.818 145.986 52.6224C146.004 52.6921 146.046 52.7538 146.104 52.7979C146.162 52.842 146.233 52.866 146.306 52.8664C172.439 52.8728 198.573 52.8728 224.706 52.8664C226.154 52.8632 227.217 53.0147 227.893 53.321C231.649 55.0149 231.334 60.738 227.453 62.1209C226.875 62.3251 225.883 62.4287 224.476 62.4319C218.527 62.4415 212.589 62.4431 206.661 62.4367C206.633 62.4364 206.604 62.4432 206.579 62.4563C206.553 62.4695 206.531 62.4887 206.515 62.5122C206.498 62.5358 206.488 62.563 206.484 62.5915C206.48 62.6201 206.484 62.6491 206.494 62.676L228.96 119.859C229.014 119.996 229.113 120.064 229.257 120.064C233.972 120.154 237.262 120.168 239.129 120.107C242.36 119.999 244.317 121.401 245 124.314V129.606C244.282 140.883 240.261 150.441 232.937 158.279C204.561 188.65 154.321 168.854 153.647 127.524C153.615 125.562 153.698 124.282 153.895 123.682C154.905 120.6 156.982 120.112 160.145 120.112C163.281 120.109 166.391 120.107 169.476 120.107C169.619 120.107 169.718 120.039 169.773 119.902L192.258 62.6664C192.268 62.6416 192.272 62.6147 192.269 62.588C192.266 62.5613 192.256 62.5357 192.24 62.5134C192.225 62.4912 192.204 62.473 192.179 62.4604C192.155 62.4479 192.128 62.4414 192.1 62.4415H146.292C146.107 62.4415 145.994 62.5324 145.952 62.7143C144.635 68.4405 141.668 73.1044 137.052 76.7061C137 76.7463 136.957 76.7983 136.928 76.858C136.899 76.9178 136.884 76.9836 136.884 77.0506V189.368C136.884 189.424 136.901 189.48 136.932 189.527C136.964 189.574 137.009 189.61 137.061 189.631C148.254 194.129 156.307 203.905 158.121 215.925C158.133 216.007 158.174 216.082 158.236 216.136C158.298 216.19 158.378 216.221 158.46 216.222C162.7 216.236 167.873 215.906 171.428 216.528C180.228 218.069 186.846 225.39 187.238 234.477C187.411 238.521 188.502 243.818 183.114 245H61.8146C59.958 244.576 58.7171 243.627 58.0918 242.153C57.3022 240.296 57.6563 236.616 57.6946 234.233C57.8334 226.237 64.1833 219.079 71.6768 216.954C75.8782 215.767 81.74 216.208 86.5587 216.222C86.6301 216.222 86.6992 216.197 86.7543 216.152C86.8093 216.107 86.8468 216.043 86.8602 215.973C89.1379 203.58 96.2582 194.469 107.948 189.621C107.998 189.6 108.04 189.565 108.07 189.52C108.1 189.474 108.116 189.422 108.116 189.368V77.0458C108.116 76.8959 108.057 76.7746 107.939 76.6821C103.323 73.0901 100.357 68.4341 99.0432 62.7143C99.0017 62.5324 98.8884 62.4415 98.7034 62.4415H52.9573C52.7563 62.4415 52.6925 62.5356 52.7659 62.7238L75.2227 119.887C75.2477 119.952 75.2917 120.008 75.3489 120.047C75.4061 120.086 75.4739 120.107 75.5433 120.107C78.5547 120.107 81.5742 120.107 84.6016 120.107C86.5762 120.111 87.9639 120.304 88.7646 120.686C90.2863 121.417 91.103 122.738 91.2146 124.649C91.7697 133.967 89.6595 142.625 84.8839 150.622C66.6716 181.128 22.1218 180.08 5.30195 148.78C2.20436 143.016 0.437044 136.667 0 129.735V124.242C0.663542 121.505 2.4181 120.135 5.26367 120.131C8.78555 120.125 12.2963 120.114 15.7958 120.098C15.8406 120.098 15.8844 120.084 15.9211 120.058C15.9579 120.033 15.986 119.996 16.0016 119.954L38.5492 62.5611C38.5547 62.5458 38.5566 62.5293 38.5546 62.5131C38.5527 62.4969 38.547 62.4816 38.538 62.4684C38.5291 62.4552 38.5171 62.4445 38.5032 62.4373C38.4893 62.4301 38.4739 62.4267 38.4583 62.4272C32.228 62.4335 25.9882 62.4606 19.7388 62.5085C12.7907 62.5611 12.7237 52.7994 19.4995 52.809C45.904 52.8536 72.3085 52.8744 98.713 52.8712C98.8853 52.8712 98.9905 52.7867 99.0288 52.6176C100.33 46.8818 103.292 42.2131 107.915 38.6114C107.976 38.5636 108.025 38.5026 108.059 38.433C108.093 38.3634 108.111 38.2869 108.111 38.2095C108.121 31.3539 108.122 24.5144 108.116 17.6907C108.113 14.239 108.28 11.8736 108.618 10.5943C110.169 4.73252 115.313 0.660352 121.356 0ZM127.252 13.4032C126.658 10.0728 122.366 8.47451 119.696 10.4795C118.369 11.478 117.704 12.5706 117.7 13.7573C117.685 20.5044 117.68 27.2371 117.686 33.9555C117.686 34.0799 117.747 34.1293 117.868 34.1038C120.921 33.5041 123.975 33.4993 127.032 34.0895C127.21 34.1214 127.301 34.0464 127.304 33.8645C127.327 28.3871 127.327 22.9273 127.304 17.485C127.295 14.9074 127.277 13.5468 127.252 13.4032ZM136.918 57.6324C136.918 53.8086 135.399 50.1414 132.695 47.4376C129.991 44.7337 126.324 43.2147 122.5 43.2147C118.676 43.2147 115.009 44.7337 112.305 47.4376C109.601 50.1414 108.082 53.8086 108.082 57.6324C108.082 61.4562 109.601 65.1234 112.305 67.8273C115.009 70.5311 118.676 72.0501 122.5 72.0501C126.324 72.0501 129.991 70.5311 132.695 67.8273C135.399 65.1234 136.918 61.4562 136.918 57.6324ZM26.3088 119.897C26.2993 119.92 26.2958 119.946 26.2985 119.971C26.3012 119.996 26.31 120.02 26.3242 120.041C26.3384 120.061 26.3575 120.078 26.3799 120.09C26.4023 120.102 26.4271 120.108 26.4523 120.107H64.8006C64.8258 120.108 64.8507 120.102 64.873 120.09C64.8954 120.078 64.9145 120.061 64.9287 120.041C64.9429 120.02 64.9518 119.996 64.9544 119.971C64.9571 119.946 64.9536 119.92 64.9441 119.897L45.77 71.0883C45.7591 71.059 45.7396 71.0337 45.7139 71.0159C45.6882 70.998 45.6577 70.9884 45.6265 70.9884C45.5952 70.9884 45.5647 70.998 45.539 71.0159C45.5134 71.0337 45.4938 71.059 45.4829 71.0883L26.3088 119.897ZM180.051 119.911C180.042 119.933 180.039 119.957 180.042 119.98C180.045 120.003 180.053 120.025 180.066 120.045C180.079 120.064 180.097 120.08 180.118 120.091C180.139 120.102 180.162 120.107 180.185 120.107H218.562C218.585 120.107 218.609 120.102 218.629 120.091C218.65 120.08 218.668 120.064 218.681 120.045C218.694 120.025 218.702 120.003 218.705 119.98C218.708 119.957 218.705 119.933 218.696 119.911L199.508 71.0644C199.497 71.0373 199.479 71.014 199.455 70.9976C199.431 70.9811 199.403 70.9723 199.374 70.9723C199.345 70.9723 199.316 70.9811 199.292 70.9976C199.268 71.014 199.25 71.0373 199.24 71.0644L180.051 119.911ZM113.15 198.019C103.407 200.905 96.6027 209.671 96.0907 219.806C95.8562 224.414 94.3154 225.773 89.5446 225.788C85.2986 225.797 81.051 225.808 76.8018 225.821C71.4376 225.84 67.4611 229.975 67.2027 235.262C67.2014 235.284 67.2045 235.305 67.2119 235.326C67.2192 235.346 67.2307 235.364 67.2455 235.38C67.2603 235.396 67.2781 235.408 67.2979 235.417C67.3177 235.425 67.3391 235.43 67.3606 235.43H177.644C177.662 235.43 177.679 235.426 177.695 235.419C177.711 235.413 177.725 235.403 177.737 235.39C177.749 235.378 177.759 235.363 177.765 235.347C177.771 235.33 177.774 235.313 177.773 235.296C177.668 231.166 175.103 227.606 171.189 226.285C170.238 225.966 168.704 225.804 166.586 225.797C162.821 225.788 159.059 225.786 155.297 225.792C152.819 225.797 150.823 225.567 149.641 223.429C149.319 222.838 149.069 221.537 148.89 219.524C148.067 210.206 143.406 203.388 134.908 199.072C131.577 197.378 127.3 197.9 127.3 192.722C127.309 155.599 127.314 118.472 127.314 81.3429C127.314 81.2025 127.245 81.1451 127.108 81.1706C124.023 81.7703 120.94 81.7703 117.858 81.1706C117.836 81.1656 117.813 81.1658 117.791 81.1712C117.769 81.1765 117.748 81.1869 117.73 81.2016C117.712 81.2163 117.698 81.2348 117.688 81.256C117.677 81.2771 117.672 81.3002 117.672 81.3237C117.681 118.418 117.715 155.511 117.772 192.603C117.777 195.785 115.853 197.215 113.15 198.019ZM59.5991 160.58C72.1697 155.23 80.539 143.631 81.6108 129.946C81.6135 129.911 81.609 129.877 81.5977 129.845C81.5864 129.812 81.5685 129.782 81.5451 129.757C81.5217 129.732 81.4934 129.712 81.4619 129.698C81.4304 129.685 81.3964 129.678 81.362 129.678H9.80957C9.6724 129.678 9.61019 129.746 9.62295 129.883C10.4109 139.205 14.1322 147.081 20.7867 153.513C30.8116 163.203 46.5644 166.126 59.5991 160.58ZM172.38 151.216C185.004 165.528 206.719 167.385 221.534 155.795C229.673 149.426 234.544 140.258 235.358 129.864C235.36 129.841 235.357 129.817 235.349 129.794C235.341 129.771 235.329 129.751 235.313 129.733C235.297 129.716 235.277 129.702 235.255 129.692C235.233 129.683 235.21 129.678 235.186 129.678H163.538C163.517 129.678 163.496 129.682 163.477 129.69C163.458 129.699 163.441 129.711 163.427 129.726C163.413 129.741 163.403 129.76 163.396 129.779C163.389 129.799 163.387 129.82 163.389 129.84C163.998 137.982 166.996 145.107 172.38 151.216Z" fill="#282151"/>
</g>
<defs>
<clipPath id="clip0_831_1067">
<rect width="245" height="245" fill="white"/>
</clipPath>
</defs>
</svg>
