<svg width="53" height="52" viewBox="0 0 53 52" fill="none" xmlns="http://www.w3.org/2000/svg">
<g id="Frame 2">
<circle id="Ellipse 2" cx="26.3027" cy="26" r="26" fill="#282151"/>
<g id="Map pin">
<path id="Vector" d="M26.3027 10C22.8549 10 19.5483 11.3696 17.1103 13.8076C14.6724 16.2456 13.3027 19.5522 13.3027 23C13.3027 29.18 20.0027 36.6 25.6327 41.74L26.3227 42.37L26.9927 41.72C33.2227 35.72 39.3027 29.35 39.3027 23C39.3027 19.5522 37.9331 16.2456 35.4951 13.8076C33.0572 11.3696 29.7505 10 26.3027 10ZM26.3027 39.62C19.2127 33 15.3027 27.12 15.3027 23C15.3027 20.0826 16.4617 17.2847 18.5246 15.2218C20.5875 13.1589 23.3854 12 26.3027 12C29.2201 12 32.018 13.1589 34.0809 15.2218C36.1438 17.2847 37.3027 20.0826 37.3027 23C37.3027 28.35 31.9627 34.09 26.3027 39.62Z" fill="#F8F4FF"/>
<path id="Vector_2" d="M26.3027 18C25.3138 18 24.3471 18.2932 23.5249 18.8427C22.7026 19.3921 22.0618 20.1729 21.6833 21.0866C21.3049 22.0002 21.2059 23.0055 21.3988 23.9754C21.5917 24.9454 22.0679 25.8363 22.7672 26.5355C23.4665 27.2348 24.3574 27.711 25.3273 27.9039C26.2972 28.0968 27.3025 27.9978 28.2161 27.6194C29.1298 27.241 29.9107 26.6001 30.4601 25.7778C31.0095 24.9556 31.3027 23.9889 31.3027 23C31.3027 21.6739 30.776 20.4021 29.8383 19.4645C28.9006 18.5268 27.6288 18 26.3027 18ZM26.3027 26C25.7094 26 25.1294 25.824 24.636 25.4944C24.1427 25.1648 23.7582 24.6962 23.5311 24.148C23.304 23.5999 23.2446 22.9967 23.3604 22.4147C23.4761 21.8328 23.7619 21.2982 24.1814 20.8787C24.601 20.4591 25.1355 20.1734 25.7175 20.0576C26.2994 19.9419 26.9026 20.0013 27.4508 20.2284C27.999 20.4554 28.4675 20.8399 28.7971 21.3333C29.1268 21.8266 29.3027 22.4067 29.3027 23C29.3027 23.7956 28.9867 24.5587 28.4241 25.1213C27.8614 25.6839 27.0984 26 26.3027 26Z" fill="#F8F4FF"/>
</g>
</g>
</svg>
