<svg width="53" height="52" viewBox="0 0 53 52" fill="none" xmlns="http://www.w3.org/2000/svg">
<g id="Frame 3">
<circle id="Ellipse 3" cx="26.3027" cy="26" r="26" fill="#282151"/>
<g id="Phone">
<path id="Vector" d="M41.7024 24.5531C39.0986 18.471 34.2379 13.6354 28.1424 11.0631C27.8969 10.9715 27.6252 10.9799 27.3858 11.0865C27.1465 11.1931 26.9585 11.3894 26.8624 11.6331C26.81 11.7551 26.7824 11.8863 26.7813 12.0191C26.7801 12.1518 26.8054 12.2835 26.8557 12.4063C26.906 12.5292 26.9802 12.6408 27.074 12.7347C27.1679 12.8286 27.2795 12.9028 27.4024 12.9531C33.0212 15.327 37.5015 19.7858 39.9024 25.3931C40.0097 25.6309 40.2057 25.8174 40.4486 25.9126C40.6915 26.0079 40.962 26.0045 41.2024 25.9032C41.3255 25.8493 41.4364 25.7711 41.5287 25.6734C41.6209 25.5757 41.6925 25.4604 41.7392 25.3344C41.7858 25.2084 41.8066 25.0742 41.8003 24.94C41.794 24.8058 41.7607 24.6742 41.7024 24.5531Z" fill="#F8F4FF"/>
<path id="Vector_2" d="M26.8838 18.3531C30.2896 19.7877 33.0067 22.4869 34.4638 25.8831C34.5412 26.0507 34.6634 26.1935 34.817 26.2959C34.9705 26.3983 35.1494 26.4562 35.3338 26.4631C35.4688 26.4621 35.602 26.4314 35.7238 26.3732C35.9537 26.2605 36.1317 26.0639 36.221 25.8239C36.3103 25.5839 36.3042 25.3187 36.2038 25.0831C34.5522 21.2272 31.4693 18.1622 27.6038 16.5331C27.3657 16.4486 27.1046 16.4574 26.8727 16.5575C26.6408 16.6577 26.4554 16.8419 26.3538 17.0731C26.2598 17.3137 26.2624 17.5812 26.3612 17.8198C26.46 18.0584 26.6473 18.2495 26.8838 18.3531Z" fill="#F8F4FF"/>
<path id="Vector_3" d="M36.513 30.2331C36.2961 29.9797 36.027 29.7763 35.724 29.6369C35.4211 29.4974 35.0915 29.4252 34.758 29.4252C34.4245 29.4252 34.0949 29.4974 33.792 29.6369C33.489 29.7763 33.2198 29.9797 33.003 30.2331C32.183 31.0431 31.363 31.8631 30.553 32.6931C30.517 32.7466 30.4705 32.7922 30.4165 32.8273C30.3625 32.8624 30.3019 32.8862 30.2385 32.8974C30.175 32.9086 30.1099 32.9069 30.0471 32.8925C29.9844 32.878 29.9251 32.851 29.873 32.8131C29.343 32.5231 28.773 32.2931 28.263 31.9731C25.9227 30.4563 23.8482 28.5644 22.123 26.3731C21.2222 25.3112 20.478 24.1259 19.913 22.8531C19.8515 22.7476 19.8308 22.6232 19.8548 22.5035C19.8787 22.3838 19.9457 22.2769 20.043 22.2031C20.863 21.4031 21.663 20.5931 22.473 19.7731C22.7373 19.5535 22.9501 19.2784 23.0961 18.9673C23.2421 18.6562 23.3178 18.3168 23.3178 17.9731C23.3178 17.6295 23.2421 17.29 23.0961 16.9789C22.9501 16.6678 22.7373 16.3927 22.473 16.1731C21.833 15.5231 21.193 14.8931 20.543 14.2431L18.543 12.2431C18.3181 12.0022 18.0476 11.8083 17.7472 11.6727C17.4468 11.5371 17.1225 11.4624 16.793 11.4531C16.4614 11.4641 16.1352 11.5404 15.8332 11.6776C15.5312 11.8149 15.2592 12.0105 15.033 12.2531C14.203 13.0631 13.413 13.9031 12.563 14.7031C11.8146 15.4089 11.367 16.3759 11.313 17.4031C11.2418 19.0878 11.5422 20.7676 12.193 22.3231C13.4403 25.5568 15.2367 28.5508 17.503 31.1731C20.4835 34.7551 24.1968 37.6569 28.393 39.6831C30.2546 40.6667 32.2951 41.2652 34.393 41.4431H34.783C35.4234 41.4702 36.0619 41.3541 36.6518 41.1033C37.2417 40.8525 37.7682 40.4732 38.193 39.9931C38.893 39.2031 39.683 38.4831 40.433 37.7331C40.6924 37.5125 40.9007 37.2382 41.0435 36.9291C41.1864 36.62 41.2604 36.2836 41.2604 35.9431C41.2604 35.6026 41.1864 35.2662 41.0435 34.9572C40.9007 34.6481 40.6924 34.3737 40.433 34.1531C39.1397 32.8465 37.833 31.5398 36.513 30.2331ZM39.033 36.3431L38.283 37.0831C37.763 37.5831 37.233 38.0831 36.713 38.6731C36.4789 38.9453 36.184 39.1587 35.8522 39.2959C35.5204 39.4331 35.161 39.4904 34.803 39.4631H34.523C32.6835 39.3043 30.8947 38.7772 29.263 37.9131C25.3264 35.9987 21.8399 33.2722 19.033 29.9131C16.8993 27.4711 15.2073 24.676 14.033 21.6531C13.4846 20.372 13.2252 18.9858 13.273 17.5931C13.2959 17.058 13.5253 16.5526 13.913 16.1831C14.433 15.6831 14.913 15.1831 15.443 14.6731L16.443 13.6731C16.4757 13.6055 16.5269 13.5485 16.5906 13.5086C16.6542 13.4687 16.7279 13.4475 16.803 13.4475C16.8781 13.4475 16.9518 13.4687 17.0154 13.5086C17.0791 13.5485 17.1302 13.6055 17.163 13.6731C17.603 14.1031 18.033 14.5431 18.463 14.9831L19.123 15.6431L20.123 16.6431L21.073 17.5931C21.443 17.9631 21.423 18.0331 21.073 18.3731L20.733 18.7131C20.053 19.4131 19.363 20.0931 18.643 20.7931C18.267 21.1503 18.0119 21.6159 17.9133 22.1251C17.8147 22.6342 17.8775 23.1614 18.093 23.6331C18.7241 25.0827 19.5666 26.4306 20.593 27.6331C22.4619 29.9841 24.7052 32.0113 27.233 33.6331C27.623 33.8731 28.023 34.0731 28.373 34.2431L28.913 34.5131C29.2949 34.7386 29.7295 34.8594 30.173 34.8631C30.5183 34.8614 30.8595 34.7875 31.1746 34.6463C31.4897 34.5051 31.7718 34.2997 32.003 34.0431C32.793 33.2331 33.593 32.4431 34.433 31.6131C34.5185 31.5017 34.6378 31.4211 34.773 31.3831C34.9128 31.4169 35.0366 31.4982 35.123 31.6131C36.4563 32.9465 37.7897 34.2565 39.123 35.5431C39.353 35.8931 39.383 35.9831 39.033 36.3431Z" fill="#F8F4FF"/>
</g>
</g>
</svg>
