<svg width="53" height="52" viewBox="0 0 53 52" fill="none" xmlns="http://www.w3.org/2000/svg">
<g id="Frame 1">
<circle id="Ellipse 1" cx="26.4004" cy="26" r="26" fill="#282151"/>
<g id="Mail">
<path id="Vector" d="M38.4004 14H14.4004C13.3395 14 12.3221 14.4214 11.572 15.1716C10.8218 15.9217 10.4004 16.9391 10.4004 18V33C10.4004 34.0609 10.8218 35.0783 11.572 35.8284C12.3221 36.5786 13.3395 37 14.4004 37H38.4004C39.4613 37 40.4787 36.5786 41.2288 35.8284C41.979 35.0783 42.4004 34.0609 42.4004 33V18C42.4004 16.9391 41.979 15.9217 41.2288 15.1716C40.4787 14.4214 39.4613 14 38.4004 14ZM40.4004 33C40.4004 33.5304 40.1897 34.0391 39.8146 34.4142C39.4395 34.7893 38.9308 35 38.4004 35H14.4004C13.87 35 13.3612 34.7893 12.9862 34.4142C12.6111 34.0391 12.4004 33.5304 12.4004 33V18C12.4004 17.4696 12.6111 16.9609 12.9862 16.5858C13.3612 16.2107 13.87 16 14.4004 16H38.4004C38.9308 16 39.4395 16.2107 39.8146 16.5858C40.1897 16.9609 40.4004 17.4696 40.4004 18V33Z" fill="#F8F4FF"/>
<path id="Vector_2" d="M36.7704 19.23L26.4004 27.71L16.0303 19.23C15.8238 19.0933 15.5738 19.0381 15.3288 19.0752C15.0839 19.1123 14.8614 19.239 14.7046 19.4307C14.5477 19.6224 14.4676 19.8656 14.4797 20.113C14.4919 20.3605 14.5954 20.5946 14.7704 20.77L25.7704 29.77C25.9485 29.9145 26.1709 29.9934 26.4004 29.9934C26.6298 29.9934 26.8522 29.9145 27.0303 29.77L38.0303 20.77C38.147 20.6928 38.2461 20.5921 38.3214 20.4742C38.3966 20.3563 38.4463 20.224 38.4673 20.0857C38.4882 19.9475 38.4799 19.8063 38.4429 19.6715C38.4059 19.5366 38.341 19.411 38.2525 19.3028C38.1639 19.1946 38.0537 19.1061 37.9288 19.0432C37.8039 18.9802 37.6673 18.9441 37.5276 18.9372C37.3879 18.9304 37.2484 18.9529 37.1179 19.0033C36.9875 19.0538 36.8691 19.131 36.7704 19.23Z" fill="#F8F4FF"/>
</g>
</g>
</svg>
