<svg width="194" height="160" viewBox="0 0 194 160" fill="none" xmlns="http://www.w3.org/2000/svg">
<g id="Group">
<path id="Vector" d="M96.8691 35.886C43.4564 35.886 0 79.5075 0 79.5075C0 79.5075 43.4564 123.129 96.8691 123.129C150.282 123.129 193.738 79.5075 193.738 79.5075C193.738 79.5075 150.282 35.886 96.8691 35.886ZM96.8691 116.538C70.9525 116.538 47.3823 105.313 32.1722 95.8961C22.2663 89.7627 14.5055 83.5694 9.78855 79.5051C14.5055 75.4409 22.2663 69.2476 32.1722 63.1141C47.3823 53.6972 70.9525 42.4721 96.8691 42.4721C122.786 42.4721 146.356 53.6972 161.566 63.1141C171.472 69.2476 179.233 75.4409 183.95 79.5051C179.233 83.5694 171.472 89.7627 161.566 95.8961C146.356 105.313 122.786 116.538 96.8691 116.538Z" fill="#282151"/>
<g id="Group_2">
<path id="Vector_2" d="M96.8689 50.948C81.0836 50.948 68.2871 63.7346 68.2871 79.5077C68.2871 95.2808 81.0836 108.067 96.8689 108.067C112.654 108.067 125.451 95.2808 125.451 79.5077C125.451 63.7346 112.654 50.948 96.8689 50.948ZM96.8689 101.477C84.7459 101.477 74.8831 91.6213 74.8831 79.5077C74.8831 67.3941 84.7459 57.5389 96.8689 57.5389C108.992 57.5389 118.855 67.3941 118.855 79.5077C118.855 91.6213 108.992 101.477 96.8689 101.477Z" fill="#282151"/>
<path id="Vector_3" d="M106.183 79.5101C106.183 84.6448 102.022 88.8168 96.8686 88.8168C91.7155 88.8168 87.5547 84.6448 87.5547 79.5101C87.5547 78.2455 87.8063 77.0433 88.2569 75.9392C88.9208 76.7655 89.9251 77.2924 91.066 77.2924C93.0458 77.2924 94.6516 75.6901 94.6516 73.7095C94.6516 72.5695 94.1243 71.5684 93.2974 70.9026C94.3999 70.4524 95.6031 70.2009 96.871 70.2009C102.024 70.2009 106.185 74.3585 106.185 79.5077L106.183 79.5101Z" fill="#282151"/>
</g>
<g id="Group_3">
<path id="Vector_4" d="M22.5394 34.8515H15.9434V7.03418H43.7846V13.6251H22.5394V34.8515Z" fill="#282151"/>
<path id="Vector_5" d="M177.795 34.8512H171.199V13.6248H149.956V7.03394H177.795V34.8512Z" fill="#282151"/>
<path id="Vector_6" d="M177.794 151.983H149.956V145.393H171.198V124.164H177.794V151.983Z" fill="#282151"/>
<path id="Vector_7" d="M43.7846 151.983H15.9434V124.164H22.5394V145.393H43.7846V151.983Z" fill="#282151"/>
</g>
<g id="Group_4">
<path id="Vector_8" d="M99.0695 0H94.6714V21.8563H99.0695V0Z" fill="#282151"/>
<path id="Vector_9" d="M73.5125 8.96013L69.3818 10.4624L74.5733 24.7149L78.704 23.2126L73.5125 8.96013Z" fill="#282151"/>
<path id="Vector_10" d="M120.212 8.9444L115.012 23.2271L119.145 24.7294L124.345 10.4468L120.212 8.9444Z" fill="#282151"/>
</g>
<g id="Group_5">
<path id="Vector_11" d="M99.0812 137.218H94.6831V159.075H99.0812V137.218Z" fill="#282151"/>
<path id="Vector_12" d="M119.18 134.362L115.047 135.865L120.239 150.118L124.372 148.615L119.18 134.362Z" fill="#282151"/>
<path id="Vector_13" d="M74.6026 134.353L69.3979 148.634L73.5306 150.138L78.7352 135.857L74.6026 134.353Z" fill="#282151"/>
</g>
</g>
</svg>
