<svg width="32" height="32" viewBox="0 0 32 32" fill="none" xmlns="http://www.w3.org/2000/svg">
<g id="icon/twitter">
<path id="vector" d="M26.6034 10.5601C26.6196 10.7952 26.6196 11.0303 26.6196 11.2675C26.6196 18.4967 21.1162 26.8342 11.053 26.8342V26.8298C8.08025 26.8342 5.16929 25.9827 2.66675 24.3771C3.099 24.4291 3.53343 24.4551 3.96894 24.4562C6.43247 24.4584 8.82559 23.6318 10.7637 22.1097C8.42259 22.0653 6.36964 20.5388 5.65246 18.3104C6.47256 18.4685 7.31757 18.436 8.1225 18.2161C5.57013 17.7004 3.73385 15.4579 3.73385 12.8535C3.73385 12.8297 3.73385 12.807 3.73385 12.7842C4.49436 13.2078 5.34587 13.4429 6.21689 13.4689C3.81293 11.8623 3.07192 8.66422 4.52361 6.16385C7.30132 9.58182 11.3996 11.6597 15.7991 11.8796C15.3582 9.97941 15.9605 7.98821 17.3819 6.65244C19.5854 4.58108 23.0511 4.68725 25.1224 6.8897C26.3477 6.64811 27.5221 6.19852 28.5967 5.56151C28.1883 6.82795 27.3336 7.90371 26.1917 8.58731C27.2761 8.45947 28.3356 8.16913 29.3334 7.72604C28.5989 8.82673 27.6737 9.78549 26.6034 10.5601Z" fill="#F8F4FF"/>
</g>
</svg>
