<svg width="46" height="46" viewBox="0 0 46 46" fill="none" xmlns="http://www.w3.org/2000/svg">
<path id="Vector" d="M28.0125 10.0087C29.9755 10.3917 31.7796 11.3518 33.1938 12.766C34.6081 14.1802 35.5681 15.9843 35.9511 17.9473M28.0125 1.9696C32.0909 2.42268 35.894 4.24904 38.7974 7.14881C41.7009 10.0486 43.532 13.8494 43.9902 17.9272M41.9804 33.9652V39.9946C41.9827 40.5543 41.8681 41.1083 41.6438 41.6212C41.4196 42.134 41.0907 42.5944 40.6783 42.9728C40.2658 43.3512 39.7789 43.6393 39.2486 43.8186C38.7184 43.9979 38.1566 44.0645 37.5991 44.0141C31.4147 43.3421 25.4741 41.2289 20.2548 37.8441C15.3988 34.7584 11.2818 30.6414 8.19609 25.7855C4.79953 20.5424 2.68577 14.5729 2.02608 8.36069C1.97586 7.80492 2.04191 7.24479 2.22002 6.71594C2.39814 6.1871 2.68442 5.70113 3.06064 5.28899C3.43686 4.87685 3.89478 4.54756 4.40523 4.32209C4.91569 4.09662 5.4675 3.97991 6.02553 3.97938H12.0549C13.0302 3.96978 13.9758 4.31517 14.7153 4.95117C15.4549 5.58718 15.9379 6.47039 16.0744 7.4362C16.3289 9.36572 16.8009 11.2603 17.4813 13.0837C17.7517 13.803 17.8102 14.5848 17.6499 15.3364C17.4896 16.088 17.1172 16.7779 16.5769 17.3243L14.0244 19.8767C16.8855 24.9083 21.0515 29.0743 26.0831 31.9354L28.6355 29.383C29.182 28.8426 29.8718 28.4702 30.6234 28.3099C31.375 28.1496 32.1568 28.2082 32.8761 28.4786C34.6996 29.159 36.5941 29.6309 38.5236 29.8854C39.4999 30.0231 40.3915 30.5149 41.0289 31.2671C41.6662 32.0193 42.0049 32.9796 41.9804 33.9652Z" stroke="#752F88" stroke-width="3" stroke-linecap="round" stroke-linejoin="round"/>
</svg>
