<svg width="188" height="188" viewBox="0 0 188 188" fill="none" xmlns="http://www.w3.org/2000/svg">
<g id="Pasted-20231114-224039 1">
<path id="Vector" d="M76.375 27.1719V87.7725C76.375 87.8699 76.3347 87.9633 76.2631 88.0322C76.1915 88.101 76.0944 88.1397 75.9931 88.1397L70.9112 88.081C70.8591 88.081 70.8076 88.0703 70.7595 88.0497C70.7113 88.029 70.6676 87.9987 70.6308 87.9605C70.594 87.9223 70.5648 87.877 70.5448 87.8271C70.5249 87.7772 70.5147 87.7237 70.5147 87.6697V23.5588C70.5132 22.8558 70.764 22.1753 71.2217 21.6395C71.6794 21.1037 72.314 20.7479 73.0115 20.636L167.026 5.91911C167.439 5.85336 167.861 5.87775 168.263 5.99059C168.665 6.10344 169.038 6.30207 169.357 6.57282C169.675 6.84358 169.931 7.18003 170.106 7.55906C170.282 7.93808 170.374 8.35068 170.375 8.76848L170.39 19.461C170.39 19.7492 170.504 20.0257 170.708 20.2295C170.912 20.4333 171.188 20.5479 171.477 20.5479L179.378 20.5772C180.108 20.5811 180.807 20.8722 181.321 21.3869C181.836 21.9015 182.125 22.5979 182.125 23.3238V178.82C182.125 179.697 181.777 180.537 181.157 181.157C180.537 181.777 179.697 182.125 178.82 182.125L145.024 182.11C144.29 182.11 143.928 181.743 143.937 181.009L143.952 177.337C143.962 176.612 144.329 176.25 145.054 176.25H175.222C175.533 176.25 175.832 176.126 176.053 175.906C176.273 175.686 176.397 175.387 176.397 175.075L176.25 26.8782C176.25 26.8203 176.239 26.763 176.216 26.7096C176.194 26.6561 176.162 26.6075 176.121 26.5666C176.08 26.5257 176.031 26.4932 175.978 26.4711C175.925 26.4489 175.867 26.4375 175.809 26.4375H77.1093C76.6198 26.4375 76.375 26.6823 76.375 27.1719ZM115.37 19.9897C118.141 20.4108 120.937 20.6164 123.757 20.6066C137.23 20.5772 150.689 20.5625 164.133 20.5625C164.387 20.5625 164.515 20.4353 164.515 20.1807L164.485 12.6166C164.485 12.411 164.382 12.3229 164.177 12.3522L115.37 19.8869C115.155 19.9163 115.155 19.9506 115.37 19.9897Z" fill="#282151"/>
<path id="Vector_2" d="M62.8603 29.2114L60.4515 29.2156C59.5187 29.2172 58.7638 29.9747 58.7654 30.9076L58.8522 80.6394C58.8538 81.5722 59.6114 82.3271 60.5442 82.3255L62.953 82.3213C63.8858 82.3196 64.6407 81.5621 64.6391 80.6293L64.5523 30.8975C64.5506 29.9646 63.7931 29.2097 62.8603 29.2114Z" fill="#282151"/>
<path id="Vector_3" d="M125.652 77.5207L99.7429 103.4C99.6917 103.454 99.6299 103.496 99.5613 103.526C99.4927 103.555 99.4186 103.57 99.3434 103.57C99.2682 103.57 99.1933 103.555 99.1232 103.526C99.0531 103.496 98.9891 103.454 98.9351 103.4L95.601 100.051C95.3171 99.7673 95.3171 99.4834 95.601 99.1994L121.671 73.1438C121.799 73.0146 121.87 72.8405 121.87 72.6591C121.87 72.4777 121.799 72.3036 121.671 72.1744L114.298 64.8013C113.907 64.3998 113.456 64.3264 112.947 64.581C101.094 70.6029 94.426 61.6875 87.3026 54.3585C87.0088 54.0647 87.0088 53.771 87.3026 53.4772L90.5632 50.2019C90.6787 50.088 90.8343 50.0241 90.9965 50.0241C91.1587 50.0241 91.3143 50.088 91.4298 50.2019L99.8457 58.5885C101.187 59.9201 102.798 60.5713 104.678 60.5419L107.101 60.4978C109.011 60.4685 109.29 59.7782 107.939 58.4269L95.5863 46.06C95.2926 45.7761 95.2926 45.4872 95.5863 45.1935L98.8323 41.9475C99.1456 41.6244 99.4638 41.6244 99.787 41.9475L112.139 54.2997C113.392 55.5531 114.058 55.2936 114.137 53.5213L114.225 51.2447C114.262 50.2997 114.103 49.3569 113.76 48.4751C113.416 47.5932 112.894 46.7911 112.227 46.1188L103.973 37.791C103.65 37.4678 103.655 37.1447 103.988 36.8216L107.16 33.6344C107.444 33.3602 107.728 33.3553 108.012 33.6197C116.266 41.36 124.183 48.1457 118.132 59.2054C117.867 59.6851 117.926 60.116 118.308 60.4978L125.681 67.8563C125.851 68.0275 126.084 68.1221 126.329 68.1193C126.574 68.1166 126.811 68.0167 126.988 67.8416L130.249 64.5222C130.562 64.1991 130.606 63.8368 130.381 63.4353C125.564 54.8285 129.485 48.0428 135.874 42.1825C150.062 29.2135 168.921 44.3563 159.448 59.8663C158.743 61.0315 156.912 63.0241 153.954 65.8441C148.471 71.1022 142.263 72.0422 135.331 68.6641C134.91 68.4585 134.538 68.5221 134.214 68.855L131.057 72.101C130.911 72.2531 130.83 72.4548 130.83 72.6633C130.83 72.8717 130.911 73.0704 131.057 73.2172L157.054 99.1994C157.168 99.3173 157.233 99.4754 157.233 99.64C157.233 99.8046 157.168 99.9627 157.054 100.081L153.734 103.4C153.624 103.508 153.477 103.568 153.323 103.568C153.169 103.568 153.021 103.508 152.912 103.4L127.032 77.5207C126.572 77.0507 126.112 77.0507 125.652 77.5207ZM153.466 57.7871C154.227 57.0153 154.829 56.1011 155.237 55.0968C155.645 54.0924 155.851 53.0176 155.843 51.9336C155.835 50.8497 155.614 49.7778 155.193 48.7793C154.771 47.7808 154.156 46.8751 153.385 46.1139L152.694 45.4333C151.136 43.8962 149.03 43.0413 146.841 43.0566C144.652 43.0718 142.558 43.9561 141.021 45.5148L136.318 50.2836C135.557 51.0554 134.956 51.9696 134.548 52.9739C134.14 53.9783 133.934 55.0531 133.942 56.137C133.949 57.221 134.17 58.2929 134.592 59.2914C135.014 60.29 135.628 61.1956 136.4 61.9568L137.09 62.6374C138.649 64.1745 140.755 65.0294 142.944 65.0142C145.133 64.9989 147.226 64.1146 148.763 62.5559L153.466 57.7871Z" fill="#282151"/>
<path id="Vector_4" d="M135.566 164.471L138.459 164.544C138.859 164.552 139.251 164.65 139.608 164.83C139.965 165.011 140.276 165.27 140.519 165.587C140.762 165.905 140.93 166.273 141.01 166.665C141.091 167.056 141.083 167.461 140.985 167.849L138.033 179.716C137.632 181.322 136.604 182.125 134.949 182.125H11.7206C11.0627 182.125 10.4236 181.906 9.90473 181.501C9.38585 181.097 9.01694 180.53 8.85656 179.892C7.90677 176.103 7.05 172.177 6.28625 168.113C5.85541 165.822 7.42208 164.529 10.9862 164.236C11.6325 164.187 11.9801 163.839 12.0291 163.193C13.8797 134.861 33.8547 113.622 60.9825 106.954C61.4623 106.837 61.7071 106.528 61.7169 106.029C62.0547 89.9903 85.1581 90.2399 85.0994 106.191C85.0953 106.404 85.1667 106.613 85.301 106.779C85.4353 106.946 85.6239 107.06 85.8337 107.101C113.813 112.947 132.525 135.624 134.905 163.854C134.944 164.255 135.164 164.461 135.566 164.471ZM67.8269 105.897H79.0481C79.1105 105.897 79.1702 105.872 79.2143 105.828C79.2584 105.784 79.2831 105.724 79.2831 105.662V105.574C79.2831 104.078 78.6843 102.643 77.6183 101.586C76.5523 100.528 75.1066 99.9337 73.5991 99.9337H73.2759C71.7684 99.9337 70.3227 100.528 69.2567 101.586C68.1907 102.643 67.5919 104.078 67.5919 105.574V105.662C67.5919 105.724 67.6166 105.784 67.6607 105.828C67.7048 105.872 67.7645 105.897 67.8269 105.897ZM111.405 126.68C76.9037 94.8078 20.6212 117.059 17.8306 163.957C17.8266 164.027 17.8366 164.097 17.8599 164.162C17.8832 164.228 17.9193 164.289 17.9661 164.339C18.0129 164.39 18.0693 164.431 18.1319 164.458C18.1944 164.486 18.2619 164.5 18.33 164.5H128.192C128.32 164.501 128.446 164.474 128.563 164.423C128.679 164.371 128.784 164.295 128.87 164.199C128.956 164.104 129.021 163.991 129.061 163.868C129.101 163.745 129.115 163.615 129.103 163.487C127.497 148.358 121.598 136.089 111.405 126.68ZM13.1453 170.375C13.0754 170.375 13.0065 170.391 12.9438 170.422C12.8811 170.452 12.8263 170.497 12.7837 170.553C12.7411 170.608 12.7118 170.672 12.6981 170.741C12.6844 170.81 12.6867 170.88 12.7047 170.948L13.9384 175.912C13.9643 176.009 14.0216 176.095 14.1013 176.156C14.181 176.217 14.2786 176.25 14.3791 176.25H132.452C132.552 176.25 132.65 176.217 132.73 176.156C132.809 176.095 132.867 176.009 132.892 175.912L134.2 170.948C134.218 170.88 134.22 170.81 134.206 170.741C134.193 170.672 134.163 170.608 134.121 170.553C134.078 170.497 134.023 170.452 133.961 170.422C133.898 170.391 133.829 170.375 133.759 170.375H13.1453Z" fill="#282151"/>
<path id="Vector_5" d="M154.939 111.625H118.279C117.832 111.625 117.471 111.987 117.471 112.433V116.692C117.471 117.138 117.832 117.5 118.279 117.5H154.939C155.385 117.5 155.746 117.138 155.746 116.692V112.433C155.746 111.987 155.385 111.625 154.939 111.625Z" fill="#282151"/>
<path id="Vector_6" d="M165.674 111.575L163.295 111.587C162.362 111.592 161.609 112.352 161.614 113.285L161.628 115.958C161.633 116.891 162.393 117.643 163.326 117.638L165.706 117.626C166.638 117.621 167.391 116.861 167.386 115.928L167.372 113.255C167.367 112.322 166.607 111.57 165.674 111.575Z" fill="#282151"/>
<path id="Vector_7" d="M85.8339 119.703L84.6148 124.08C84.5365 124.354 84.3602 124.467 84.0861 124.418C63.0242 120.805 46.7651 127.693 35.3089 145.083C35.1914 145.269 35.0396 145.303 34.8535 145.186L30.5942 142.645C30.3298 142.479 30.2808 142.263 30.4473 141.999C42.0064 123.169 63.8026 113.52 85.4373 119.013C85.5102 119.032 85.5787 119.065 85.6385 119.111C85.6983 119.156 85.7483 119.213 85.7853 119.277C85.8224 119.342 85.8458 119.413 85.8541 119.486C85.8625 119.559 85.8556 119.633 85.8339 119.703Z" fill="#282151"/>
<path id="Vector_8" d="M154.522 123.354L130.464 123.396C129.799 123.397 129.26 123.937 129.262 124.603L129.268 128.098C129.269 128.763 129.809 129.302 130.474 129.3L154.532 129.258C155.197 129.257 155.736 128.717 155.735 128.052L155.728 124.556C155.727 123.891 155.187 123.353 154.522 123.354Z" fill="#282151"/>
<path id="Vector_9" d="M165.684 123.3L163.305 123.304C162.364 123.305 161.603 124.069 161.604 125.01L161.609 127.684C161.611 128.624 162.375 129.386 163.316 129.384L165.695 129.38C166.636 129.378 167.397 128.614 167.396 127.673L167.391 125C167.39 124.059 166.625 123.298 165.684 123.3Z" fill="#282151"/>
<path id="Vector_10" d="M154.428 135.03L139.329 135.162C138.632 135.168 138.071 135.738 138.077 136.436L138.107 139.814C138.113 140.511 138.683 141.072 139.381 141.066L154.479 140.934C155.177 140.928 155.737 140.357 155.731 139.66L155.702 136.282C155.696 135.584 155.125 135.024 154.428 135.03Z" fill="#282151"/>
<path id="Vector_11" d="M165.916 135.157L163.395 134.989C162.497 134.929 161.72 135.609 161.66 136.508L161.477 139.263C161.418 140.161 162.098 140.938 162.996 140.998L165.517 141.165C166.415 141.225 167.192 140.545 167.251 139.647L167.434 136.891C167.494 135.993 166.814 135.216 165.916 135.157Z" fill="#282151"/>
<path id="Vector_12" d="M32.4152 151.443L30.9171 155.908C30.8701 156.042 30.7749 156.154 30.6501 156.222C30.5252 156.289 30.3796 156.308 30.2415 156.275L25.659 155.115C25.5834 155.095 25.5127 155.059 25.4513 155.011C25.3899 154.962 25.3391 154.902 25.3019 154.833C25.2648 154.764 25.2421 154.689 25.2353 154.611C25.2285 154.533 25.2377 154.454 25.2624 154.38L26.9221 149.298C26.9465 149.223 26.9862 149.154 27.0386 149.095C27.0911 149.036 27.1552 148.988 27.2269 148.955C27.2986 148.922 27.3764 148.904 27.4554 148.902C27.5344 148.901 27.6129 148.916 27.6859 148.946L32.0921 150.723C32.2279 150.779 32.3372 150.884 32.3973 151.018C32.4574 151.152 32.4639 151.304 32.4152 151.443Z" fill="#282151"/>
</g>
</svg>
