<svg width="184" height="184" viewBox="0 0 184 184" fill="none" xmlns="http://www.w3.org/2000/svg">
<g id="Pasted-20231114-222520 1" clip-path="url(#clip0_831_664)">
<path id="Vector" d="M57.8162 0H126.23C126.726 0.0910417 127.225 0.161719 127.725 0.212031C133.81 0.83375 138.981 5.61703 140.501 11.367C140.863 12.7327 141.046 15.1129 141.051 18.5078C141.065 29.6508 141.067 40.7939 141.055 51.9369C141.055 52.0615 140.992 52.1237 140.868 52.1237H135.129C135.002 52.1237 134.938 52.0603 134.938 51.9333L134.942 41.4108C134.941 41.3891 134.935 41.3678 134.924 41.3491C134.913 41.3304 134.898 41.3148 134.879 41.304C134.86 41.2931 134.839 41.2873 134.817 41.2871C134.795 41.287 134.774 41.2924 134.755 41.303C129.77 44.1456 123.557 43.1178 119.747 38.8269C119.728 38.8051 119.704 38.7875 119.678 38.7754C119.651 38.7633 119.623 38.7569 119.594 38.7565C119.564 38.7562 119.536 38.7619 119.509 38.7734C119.482 38.7849 119.458 38.8019 119.438 38.8233C114.5 44.2211 106.45 44.2391 101.444 38.9203C101.272 38.7358 101.101 38.7358 100.93 38.9203C96.0106 44.2786 87.8276 44.1816 82.9653 38.8125C82.9346 38.7783 82.8915 38.7576 82.8452 38.7549C82.7989 38.7523 82.753 38.7677 82.7173 38.7981C82.0596 39.3695 81.4164 40.0667 80.7695 40.5411C76.4678 43.6712 70.7465 43.6605 66.4412 40.5483C65.7979 40.0847 65.1798 39.427 64.5545 38.8448C64.4586 38.7538 64.3604 38.7526 64.2598 38.8413C63.7962 39.2617 63.3398 39.7864 62.9193 40.1278C59.0273 43.2903 53.7085 43.8473 49.2523 41.303C49.2324 41.2915 49.2098 41.2855 49.1869 41.2856C49.1639 41.2857 49.1414 41.292 49.1216 41.3037C49.1019 41.3154 49.0856 41.3322 49.0744 41.3522C49.0633 41.3723 49.0577 41.395 49.0582 41.418L49.0654 45.8167C49.0654 45.9389 49.0031 46 48.8785 46H43.1321C43.0099 46 42.9477 45.9377 42.9453 45.8131C42.9237 35.7506 42.9273 25.6917 42.956 15.6364C42.9848 7.04016 49.2415 0.585781 57.8162 0ZM49.2559 18.4072H134.737C134.805 18.4072 134.871 18.3799 134.92 18.3314C134.968 18.2829 134.996 18.2171 134.996 18.1484V15.7155C134.996 13.1621 133.966 10.7132 132.135 8.90769C130.303 7.10215 127.818 6.08781 125.228 6.08781H58.7649C56.1744 6.08781 53.6899 7.10215 51.8581 8.90769C50.0262 10.7132 48.9971 13.1621 48.9971 15.7155V18.1484C48.9971 18.2171 49.0244 18.2829 49.0729 18.3314C49.1214 18.3799 49.1873 18.4072 49.2559 18.4072ZM61.162 24.5345H49.2307C49.1831 24.5345 49.1374 24.5535 49.1037 24.5872C49.07 24.6209 49.051 24.6666 49.051 24.7142V30.4894C49.051 32.1583 49.6928 33.7589 50.8352 34.939C51.9775 36.1191 53.5269 36.782 55.1424 36.782H55.2503C56.8658 36.782 58.4152 36.1191 59.5575 34.939C60.6999 33.7589 61.3417 32.1583 61.3417 30.4894V24.7142C61.3417 24.6666 61.3227 24.6209 61.289 24.5872C61.2553 24.5535 61.2096 24.5345 61.162 24.5345ZM79.5548 24.5309H67.6451C67.5946 24.5309 67.5461 24.551 67.5104 24.5867C67.4747 24.6224 67.4546 24.6709 67.4546 24.7214V30.493C67.4546 32.1619 68.0964 33.7624 69.2388 34.9425C70.3811 36.1227 71.9305 36.7856 73.546 36.7856H73.6539C75.2694 36.7856 76.8188 36.1227 77.9611 34.9425C79.1035 33.7624 79.7453 32.1619 79.7453 30.493V24.7214C79.7453 24.6709 79.7252 24.6224 79.6895 24.5867C79.6538 24.551 79.6053 24.5309 79.5548 24.5309ZM98.0015 24.5309H85.9912C85.9578 24.5309 85.9258 24.5442 85.9023 24.5678C85.8787 24.5914 85.8654 24.6234 85.8654 24.6567V30.5541C85.8654 31.3715 86.0227 32.1809 86.3283 32.936C86.6339 33.6912 87.0818 34.3774 87.6464 34.9554C88.211 35.5333 88.8814 35.9918 89.6191 36.3046C90.3568 36.6174 91.1475 36.7784 91.946 36.7784H92.0467C92.8452 36.7784 93.6359 36.6174 94.3736 36.3046C95.1114 35.9918 95.7817 35.5333 96.3463 34.9554C96.911 34.3774 97.3589 33.6912 97.6644 32.936C97.97 32.1809 98.1273 31.3715 98.1273 30.5541V24.6567C98.1273 24.6234 98.114 24.5914 98.0904 24.5678C98.0669 24.5442 98.0349 24.5309 98.0015 24.5309ZM116.351 24.5202L104.442 24.5417C104.39 24.5417 104.341 24.5622 104.304 24.5986C104.268 24.635 104.247 24.6843 104.247 24.7358L104.258 30.5181C104.261 32.1832 104.906 33.7789 106.052 34.9543C107.198 36.1296 108.75 36.7884 110.368 36.7856H110.468C111.269 36.7843 112.062 36.6205 112.801 36.3037C113.541 35.9869 114.212 35.5233 114.778 34.9393C115.343 34.3553 115.791 33.6623 116.096 32.9001C116.401 32.1378 116.557 31.3211 116.556 30.4966L116.545 24.7142C116.545 24.6627 116.525 24.6134 116.488 24.577C116.452 24.5406 116.403 24.5202 116.351 24.5202ZM134.726 24.5202L122.874 24.5417C122.815 24.5417 122.758 24.5652 122.716 24.607C122.675 24.6488 122.651 24.7054 122.651 24.7645L122.662 30.5002C122.665 32.17 123.31 33.7703 124.457 34.949C125.603 36.1277 127.156 36.7884 128.775 36.7856H128.868C129.67 36.7843 130.463 36.62 131.203 36.3023C131.943 35.9846 132.614 35.5197 133.18 34.934C133.746 34.3483 134.194 33.6534 134.499 32.889C134.805 32.1245 134.961 31.3055 134.96 30.4786L134.949 24.743C134.949 24.7137 134.943 24.6847 134.932 24.6577C134.921 24.6307 134.904 24.6061 134.884 24.5854C134.863 24.5647 134.838 24.5483 134.811 24.5371C134.784 24.5259 134.755 24.5202 134.726 24.5202Z" fill="#282151"/>
<path id="Vector_2" d="M0 101.603V63.9364C0.37375 58.517 3.92797 53.9063 9.17844 52.5514C10.2638 52.2711 12.196 52.1309 14.9752 52.1309C36.4873 52.119 57.9995 52.1357 79.5117 52.1813C85.1144 52.192 90.0127 55.678 91.5113 61.0578C91.8275 62.2006 91.988 64.2155 91.9928 67.1025C92.0072 78.3366 92.012 89.5706 92.0072 100.805C92.0072 106.454 88.4961 111.485 83.0516 112.984C81.9111 113.3 79.8927 113.458 76.9961 113.458C55.3737 113.473 33.7513 113.473 12.1289 113.458C5.48766 113.455 0.463594 108.089 0 101.603ZM85.8763 64.4755C85.8763 62.8285 85.222 61.2489 84.0574 60.0843C82.8928 58.9197 81.3132 58.2655 79.6662 58.2655H12.3337C10.6868 58.2655 9.10722 58.9197 7.94262 60.0843C6.77802 61.2489 6.12375 62.8285 6.12375 64.4755V101.125C6.12375 101.94 6.28438 102.748 6.59646 103.501C6.90854 104.254 7.36596 104.939 7.94262 105.516C8.51927 106.092 9.20385 106.55 9.95729 106.862C10.7107 107.174 11.5182 107.335 12.3337 107.335H79.6662C80.4818 107.335 81.2893 107.174 82.0427 106.862C82.7961 106.55 83.4807 106.092 84.0574 105.516C84.634 104.939 85.0915 104.254 85.4035 103.501C85.7156 102.748 85.8763 101.94 85.8763 101.125V64.4755Z" fill="#282151"/>
<path id="Vector_3" d="M184 82.5881V144.393C183.619 146.257 182.481 147.189 180.586 147.189C156.664 147.196 132.741 147.198 108.819 147.193C105.477 147.193 104.266 146.406 104.266 143.042C104.261 123.43 104.261 103.818 104.266 84.2052C104.266 81.8621 104.776 79.7382 107.453 79.7382C111.406 79.7382 115.386 79.7382 119.392 79.7382C119.447 79.7382 119.5 79.7163 119.539 79.6772C119.578 79.6381 119.6 79.5851 119.6 79.5298C119.581 77.5173 119.608 75.4808 119.683 73.4204C119.831 69.4266 121.139 66.0712 123.607 63.3543C128.045 58.4704 134.622 57.0976 140.864 59.5126C140.974 59.5544 141.094 59.5582 141.206 59.5234C142.514 59.0993 143.822 58.6106 145.126 58.456C154.704 57.342 162.517 64.4576 162.538 74.0278C162.543 75.9085 162.538 77.7617 162.524 79.5873C162.524 79.6273 162.54 79.6657 162.568 79.694C162.596 79.7223 162.635 79.7382 162.675 79.7382C168.624 79.7382 174.564 79.7382 180.496 79.7382C182.473 79.7382 183.641 80.6882 184 82.5881ZM134.773 64.4504C129.397 64.4576 125.789 68.8671 125.742 74.0349C125.725 75.8534 125.725 77.6826 125.742 79.5226C125.744 79.6663 125.816 79.7382 125.957 79.7382H131.671C131.801 79.7382 131.866 79.6735 131.866 79.5442C131.862 76.0007 131.549 71.9757 132.732 68.6407C133.189 67.3446 133.9 66.0065 134.863 64.6265C134.947 64.5091 134.917 64.4504 134.773 64.4504ZM147.261 64.6265C149.123 67.3074 150.186 70.1573 150.233 73.1329C150.269 75.2796 150.276 77.4442 150.255 79.6268C150.255 79.6564 150.267 79.6847 150.287 79.7056C150.308 79.7265 150.337 79.7382 150.366 79.7382L156.217 79.7346C156.329 79.7346 156.387 79.6783 156.389 79.5657C156.423 76.3337 156.42 74.2793 156.382 73.4024C156.166 68.4431 152.371 64.5402 147.358 64.4468C147.21 64.442 147.177 64.5019 147.261 64.6265ZM140.936 66.9624C137.303 70.222 137.914 75.282 138.029 79.5837C138.031 79.6867 138.084 79.7382 138.187 79.7382L143.976 79.7346C144.075 79.7346 144.124 79.6867 144.124 79.5909C144.135 75.0232 144.875 70.4735 141.216 66.9696C141.123 66.881 141.03 66.8786 140.936 66.9624ZM144.242 92.0001C144.21 92.0001 144.179 91.9872 144.156 91.9643C144.133 91.9414 144.12 91.9103 144.12 91.8779L144.124 85.9985C144.124 85.9661 144.111 85.935 144.088 85.9121C144.065 85.8892 144.034 85.8763 144.002 85.8763H125.857C125.824 85.8763 125.793 85.8892 125.77 85.9121C125.747 85.935 125.735 85.9661 125.735 85.9985L125.742 91.8779C125.742 91.9103 125.729 91.9414 125.706 91.9643C125.683 91.9872 125.652 92.0001 125.62 92.0001H119.719C119.686 92.0001 119.655 91.9872 119.632 91.9643C119.609 91.9414 119.596 91.9103 119.596 91.8779L119.6 85.9985C119.6 85.9825 119.597 85.9666 119.591 85.9518C119.585 85.9369 119.576 85.9235 119.564 85.9121C119.553 85.9008 119.539 85.8918 119.525 85.8856C119.51 85.8795 119.494 85.8763 119.478 85.8763H110.526C110.493 85.8763 110.462 85.8892 110.439 85.9121C110.417 85.935 110.404 85.9661 110.404 85.9985V140.936C110.404 140.969 110.417 141 110.439 141.023C110.462 141.046 110.493 141.058 110.526 141.058L159.343 141.055C159.376 141.055 159.407 141.042 159.43 141.019C159.453 140.996 159.466 140.965 159.466 140.933V85.9985C159.466 85.9661 159.453 85.935 159.43 85.9121C159.407 85.8892 159.376 85.8763 159.343 85.8763H150.384C150.352 85.8763 150.321 85.8892 150.298 85.9121C150.275 85.935 150.262 85.9661 150.262 85.9985L150.266 91.8779C150.266 91.9103 150.253 91.9414 150.23 91.9643C150.207 91.9872 150.176 92.0001 150.143 92.0001H144.242ZM177.61 134.593C177.788 134.83 177.876 134.802 177.876 134.507V86.056C177.876 85.9362 177.816 85.8763 177.697 85.8763H165.686C165.663 85.8763 165.642 85.8858 165.625 85.9027C165.609 85.9195 165.6 85.9424 165.6 85.9662L165.596 134.672C165.596 134.828 165.646 134.844 165.744 134.719C166.647 133.567 167.531 132.4 168.396 131.219C169.586 129.591 170.89 128.304 172.885 129.163C174.559 129.882 176.406 132.983 177.61 134.593ZM168.813 140.875C168.8 140.892 168.793 140.913 168.791 140.934C168.789 140.955 168.793 140.977 168.803 140.996C168.813 141.015 168.827 141.031 168.846 141.042C168.864 141.053 168.885 141.059 168.906 141.058H174.57C174.591 141.059 174.612 141.053 174.631 141.042C174.649 141.031 174.664 141.015 174.673 140.996C174.683 140.977 174.687 140.955 174.686 140.934C174.684 140.913 174.676 140.892 174.664 140.875L171.832 137.102C171.821 137.087 171.807 137.075 171.791 137.066C171.774 137.058 171.756 137.054 171.738 137.054C171.72 137.054 171.702 137.058 171.686 137.066C171.669 137.075 171.655 137.087 171.645 137.102L168.813 140.875Z" fill="#282151"/>
<path id="Vector_4" d="M30.6759 79.6106C30.6773 80.4541 30.3437 81.2636 29.7483 81.8611C29.1529 82.4586 28.3445 82.7951 27.501 82.7966L15.4619 82.8176C14.6184 82.8191 13.8089 82.4854 13.2114 81.89C12.6139 81.2946 12.2774 80.4862 12.2759 79.6427L12.2549 67.5964C12.2534 66.7529 12.5871 65.9434 13.1825 65.3459C13.7779 64.7484 14.5863 64.4119 15.4298 64.4104L27.4689 64.3894C28.3124 64.3879 29.1219 64.7216 29.7194 65.317C30.3169 65.9124 30.6534 66.7208 30.6549 67.5643L30.6759 79.6106ZM24.5344 70.6674C24.5344 70.6321 24.5204 70.5983 24.4955 70.5734C24.4706 70.5484 24.4367 70.5344 24.4015 70.5344H18.5365C18.5012 70.5344 18.4674 70.5484 18.4425 70.5734C18.4175 70.5983 18.4035 70.6321 18.4035 70.6674V76.5324C18.4035 76.5677 18.4175 76.6015 18.4425 76.6264C18.4674 76.6514 18.5012 76.6654 18.5365 76.6654H24.4015C24.4367 76.6654 24.4706 76.6514 24.4955 76.6264C24.5204 76.6015 24.5344 76.5677 24.5344 76.5324V70.6674Z" fill="#282151"/>
<path id="Vector_5" d="M67.3432 64.4036H61.4567C61.3892 64.4036 61.3345 64.4583 61.3345 64.5258V70.4123C61.3345 70.4798 61.3892 70.5345 61.4567 70.5345H67.3432C67.4107 70.5345 67.4654 70.4798 67.4654 70.4123V64.5258C67.4654 64.4583 67.4107 64.4036 67.3432 64.4036Z" fill="#282151"/>
<path id="Vector_6" d="M79.6088 64.4036H73.7295C73.658 64.4036 73.6001 64.4615 73.6001 64.5329V70.4051C73.6001 70.4766 73.658 70.5345 73.7295 70.5345H79.6088C79.6803 70.5345 79.7382 70.4766 79.7382 70.4051V64.5329C79.7382 64.4615 79.6803 64.4036 79.6088 64.4036Z" fill="#282151"/>
<path id="Vector_7" d="M64.569 85.0676C66.524 83.6984 68.0837 82.7676 70.8868 82.8287C75.7527 82.9365 79.7202 87.0477 79.7706 91.9101C79.8496 99.7588 70.6029 104.061 64.6121 98.9466C64.5043 98.8556 64.3941 98.852 64.2815 98.9359C61.5958 100.987 58.8465 101.643 56.0338 100.905C50.7366 99.5145 47.8509 94.3071 49.5112 88.9632C49.9137 87.6671 50.6504 86.5039 51.7213 85.4737C55.2863 82.0416 60.3535 81.9842 64.2563 85.0604C64.3594 85.1419 64.4636 85.1443 64.569 85.0676ZM61.2915 91.9999C61.2915 91.6026 61.2132 91.2091 61.0612 90.842C60.9091 90.4748 60.6862 90.1413 60.4052 89.8603C60.1242 89.5793 59.7906 89.3564 59.4235 89.2043C59.0564 89.0523 58.6629 88.974 58.2656 88.974C57.463 88.974 56.6934 89.2928 56.1259 89.8603C55.5584 90.4277 55.2396 91.1974 55.2396 91.9999C55.2396 92.8025 55.5584 93.5721 56.1259 94.1396C56.6934 94.7071 57.463 95.0259 58.2656 95.0259C58.6629 95.0259 59.0564 94.9476 59.4235 94.7955C59.7906 94.6435 60.1242 94.4206 60.4052 94.1396C60.6862 93.8586 60.9091 93.525 61.0612 93.1579C61.2132 92.7908 61.2915 92.3973 61.2915 91.9999ZM73.5641 91.9999C73.5641 91.1965 73.245 90.4259 72.6768 89.8577C72.1087 89.2896 71.3381 88.9704 70.5346 88.9704C69.7311 88.9704 68.9606 89.2896 68.3924 89.8577C67.8243 90.4259 67.5051 91.1965 67.5051 91.9999C67.5051 92.8034 67.8243 93.574 68.3924 94.1421C68.9606 94.7103 69.7311 95.0295 70.5346 95.0295C71.3381 95.0295 72.1087 94.7103 72.6768 94.1421C73.245 93.574 73.5641 92.8034 73.5641 91.9999Z" fill="#282151"/>
<path id="Vector_8" d="M18.2815 88.9382H12.3877C12.3183 88.9382 12.262 88.9945 12.262 89.064V94.9362C12.262 95.0057 12.3183 95.062 12.3877 95.062H18.2815C18.351 95.062 18.4073 95.0057 18.4073 94.9362V89.064C18.4073 88.9945 18.351 88.9382 18.2815 88.9382Z" fill="#282151"/>
<path id="Vector_9" d="M30.5092 88.9396L24.7089 88.9295C24.6136 88.9293 24.5362 89.0064 24.5361 89.1017L24.526 94.8876C24.5258 94.9829 24.6029 95.0603 24.6982 95.0604L30.4985 95.0706C30.5937 95.0707 30.6711 94.9936 30.6713 94.8984L30.6814 89.1124C30.6815 89.0172 30.6044 88.9398 30.5092 88.9396Z" fill="#282151"/>
<path id="Vector_10" d="M42.681 88.9394L37.0748 88.9297C36.9279 88.9294 36.8086 89.0483 36.8084 89.1951L36.7986 94.7942C36.7983 94.9411 36.9172 95.0603 37.0641 95.0606L42.6703 95.0704C42.8172 95.0706 42.9365 94.9518 42.9367 94.8049L42.9465 89.2058C42.9467 89.059 42.8279 88.9397 42.681 88.9394Z" fill="#282151"/>
<path id="Vector_11" d="M126.187 184H57.766C57.2725 183.909 56.7753 183.838 56.2746 183.788C53.051 183.461 49.8166 181.811 47.5885 179.619C44.5386 176.617 43.0065 172.867 42.9921 168.367C42.9394 152.155 42.9214 135.935 42.9382 119.708C42.9382 119.678 42.9499 119.65 42.9708 119.629C42.9917 119.608 43.0201 119.596 43.0496 119.596H48.8859C49.0033 119.596 49.062 119.655 49.062 119.773L49.0655 153.022C49.0655 153.104 49.0981 153.182 49.1561 153.24C49.214 153.298 49.2926 153.331 49.3746 153.331L140.879 153.338C140.927 153.338 140.974 153.358 141.008 153.393C141.043 153.428 141.062 153.475 141.062 153.525C141.072 158.662 141.066 163.819 141.044 168.996C141.012 175.864 136.041 181.664 129.548 183.479C128.505 183.77 127.323 183.82 126.187 184ZM49.6441 171.753C50.7905 175.113 54.2801 177.873 58.0643 177.873C79.9071 177.88 101.749 177.88 123.589 177.873C127.244 177.873 129.749 177.589 132.175 175.213C133.885 173.539 134.773 171.436 134.838 168.906C134.917 165.832 134.949 162.769 134.935 159.717C134.935 159.684 134.928 159.652 134.916 159.622C134.903 159.592 134.885 159.565 134.862 159.542C134.839 159.519 134.812 159.5 134.782 159.488C134.751 159.475 134.719 159.469 134.687 159.469H49.238C49.1206 159.469 49.062 159.528 49.062 159.645C49.0572 161.708 49.0548 163.758 49.0548 165.794C49.0548 168.612 49.2512 170.598 49.6441 171.753Z" fill="#282151"/>
<path id="Vector_12" d="M94.929 165.593H89.0712C88.9978 165.593 88.9382 165.652 88.9382 165.726V171.605C88.9382 171.679 88.9978 171.738 89.0712 171.738H94.929C95.0024 171.738 95.062 171.679 95.062 171.605V165.726C95.062 165.652 95.0024 165.593 94.929 165.593Z" fill="#282151"/>
</g>
<defs>
<clipPath id="clip0_831_664">
<rect width="184" height="184" fill="white"/>
</clipPath>
</defs>
</svg>
