<svg width="184" height="184" viewBox="0 0 184 184" fill="none" xmlns="http://www.w3.org/2000/svg">
<g id="Pasted-20231114-223816 (1) 1">
<path id="Vector" d="M15.9705 83.4433C10.2205 81.0786 6.42555 76.9063 5.28633 70.8688C4.63945 67.4368 4.98805 62.3876 4.94851 58.3051C4.94133 57.4713 5.79664 56.1596 6.05898 55.6026C12.396 42.1284 18.7353 28.6554 25.0771 15.1837C25.5706 14.1391 26.4355 13.618 27.6718 13.6204C70.4662 13.6539 113.262 13.6719 156.059 13.6743C157.902 13.6743 158.463 14.1774 159.253 15.8593C165.626 29.4005 171.998 42.9418 178.369 56.483C178.783 57.3623 178.991 57.9409 178.994 58.2188C179.008 62.3408 179.371 67.3936 178.703 70.8976C177.581 76.7661 173.743 81.2619 168.015 83.4325C167.893 83.4805 167.832 83.5691 167.832 83.6985C167.832 111.517 167.832 139.333 167.832 167.149C167.832 169.352 167.001 170.322 164.831 170.322C116.116 170.332 67.4019 170.337 18.6874 170.337C16.621 170.333 16.161 168.698 16.161 166.865C16.1802 139.15 16.179 111.435 16.1574 83.7201C16.1574 83.5859 16.0951 83.4936 15.9705 83.4433ZM11.4963 55.696C11.4879 55.7146 11.4843 55.735 11.4858 55.7554C11.4873 55.7758 11.494 55.7954 11.505 55.8126C11.5161 55.8298 11.5313 55.8439 11.5493 55.8536C11.5672 55.8634 11.5873 55.8685 11.6077 55.8685H33.5655C33.5929 55.8685 33.6195 55.8592 33.641 55.8423C33.6625 55.8253 33.6777 55.8017 33.6841 55.7751L42.0863 18.7882C42.0908 18.7699 42.0909 18.7509 42.0868 18.7326C42.0827 18.7142 42.0744 18.6971 42.0625 18.6825C42.0507 18.6679 42.0357 18.6562 42.0186 18.6484C42.0016 18.6405 41.9829 18.6367 41.9641 18.6372H29.0159C28.9923 18.6372 28.9693 18.644 28.9496 18.6568C28.9298 18.6695 28.9141 18.6877 28.9045 18.7091L11.4963 55.696ZM38.7944 55.7319C38.7907 55.7482 38.7906 55.7651 38.7943 55.7814C38.7979 55.7977 38.8052 55.813 38.8155 55.8261C38.8259 55.8392 38.8391 55.8498 38.8541 55.8572C38.8691 55.8645 38.8856 55.8684 38.9023 55.8685H62.1898C62.2164 55.8688 62.2424 55.8596 62.2628 55.8425C62.2833 55.8253 62.2969 55.8014 62.3012 55.7751L68.8957 18.7666C68.8983 18.7506 68.8974 18.7341 68.893 18.7185C68.8886 18.7028 68.8808 18.6883 68.8702 18.6759C68.8596 18.6636 68.8464 18.6538 68.8315 18.6471C68.8167 18.6404 68.8006 18.637 68.7843 18.6372H47.3045C47.2794 18.6374 47.2551 18.646 47.2356 18.6617C47.216 18.6773 47.2023 18.6991 47.1966 18.7235L38.7944 55.7319ZM67.3576 55.714C67.3545 55.7328 67.3555 55.7522 67.3605 55.7706C67.3656 55.7891 67.3745 55.8062 67.3868 55.8209C67.3991 55.8356 67.4144 55.8474 67.4317 55.8556C67.449 55.8638 67.4678 55.8682 67.4869 55.8685H89.3729C89.3904 55.8685 89.4076 55.8651 89.4238 55.8584C89.4399 55.8517 89.4546 55.8419 89.4669 55.8295C89.4793 55.8172 89.4891 55.8025 89.4957 55.7864C89.5024 55.7703 89.5059 55.753 89.5059 55.7355V18.7702C89.5059 18.7349 89.4919 18.7011 89.4669 18.6762C89.442 18.6513 89.4082 18.6372 89.3729 18.6372H74.0815C74.0503 18.6377 74.0202 18.6491 73.9966 18.6694C73.9729 18.6898 73.9572 18.7178 73.9521 18.7486L67.3576 55.714ZM94.494 55.7391C94.494 55.7734 94.5076 55.8063 94.5319 55.8306C94.5561 55.8549 94.589 55.8685 94.6234 55.8685H116.513C116.532 55.8682 116.55 55.8639 116.567 55.8559C116.584 55.8479 116.599 55.8363 116.61 55.822C116.622 55.8076 116.631 55.7909 116.636 55.7728C116.641 55.7548 116.642 55.736 116.639 55.7176L110.048 18.7451C110.043 18.7152 110.027 18.6881 110.004 18.6684C109.981 18.6487 109.952 18.6377 109.922 18.6372H94.6234C94.589 18.6372 94.5561 18.6509 94.5319 18.6751C94.5076 18.6994 94.494 18.7323 94.494 18.7666V55.7391ZM121.699 55.7751C121.703 55.8014 121.717 55.8253 121.737 55.8425C121.757 55.8596 121.783 55.8688 121.81 55.8685H145.098C145.114 55.8684 145.131 55.8645 145.146 55.8572C145.161 55.8498 145.174 55.8392 145.184 55.8261C145.195 55.813 145.202 55.7977 145.206 55.7814C145.209 55.7651 145.209 55.7482 145.205 55.7319L136.803 18.7235C136.798 18.6991 136.784 18.6773 136.764 18.6617C136.745 18.646 136.72 18.6374 136.695 18.6372H115.212C115.196 18.637 115.18 18.6404 115.165 18.6471C115.15 18.6538 115.137 18.6636 115.126 18.6759C115.115 18.6883 115.108 18.7028 115.103 18.7185C115.099 18.7341 115.098 18.7506 115.101 18.7666L121.699 55.7751ZM150.316 55.7786C150.322 55.8046 150.336 55.8278 150.357 55.8441C150.378 55.8605 150.404 55.8691 150.431 55.8685H172.406C172.426 55.8686 172.445 55.8638 172.462 55.8544C172.48 55.845 172.494 55.8314 172.505 55.8148C172.515 55.7983 172.521 55.7793 172.522 55.7598C172.523 55.7403 172.519 55.7208 172.511 55.7032L155.099 18.7019C155.089 18.6824 155.075 18.666 155.056 18.6545C155.038 18.6431 155.016 18.6371 154.995 18.6372H142.025C142.008 18.6374 141.991 18.6413 141.975 18.6488C141.96 18.6564 141.946 18.6672 141.936 18.6807C141.925 18.6941 141.917 18.7098 141.914 18.7265C141.91 18.7433 141.91 18.7606 141.914 18.7774L150.316 55.7786ZM32.0813 72.7843C32.7498 71.3923 33.0828 70.1309 33.0804 69.0001C33.078 66.3622 33.0768 63.734 33.0768 61.1154C33.0768 61.0459 33.0409 61.0111 32.969 61.0111L10.1523 61.0075C10.0277 61.0075 9.96419 61.071 9.96179 61.198C9.92945 64.4971 9.58805 68.6335 10.5224 71.5516C11.6245 74.9848 13.9437 77.4298 17.4799 78.8865C18.0549 79.1236 18.7234 79.0374 19.2373 79.2207C20.3082 79.5968 21.4115 79.7166 22.5471 79.5801C26.9938 79.0458 30.1718 76.7805 32.0813 72.7843ZM61.0973 61.0075H38.3273C38.2796 61.0075 38.2339 61.0265 38.2002 61.0602C38.1665 61.0939 38.1476 61.1396 38.1476 61.1872V67.868C38.1476 70.9304 39.3508 73.8674 41.4927 76.0328C43.6345 78.1982 46.5395 79.4147 49.5685 79.4147H49.856C52.885 79.4147 55.79 78.1982 57.9318 76.0328C60.0737 73.8674 61.277 70.9304 61.277 67.868V61.1872C61.277 61.1396 61.258 61.0939 61.2243 61.0602C61.1906 61.0265 61.1449 61.0075 61.0973 61.0075ZM89.2723 61.0255L66.5741 60.9824C66.5422 60.9819 66.5105 60.9878 66.4809 60.9997C66.4513 61.0116 66.4243 61.0292 66.4016 61.0516C66.3788 61.074 66.3608 61.1007 66.3484 61.1302C66.3361 61.1596 66.3298 61.1913 66.3298 61.2232L66.319 67.8824C66.3161 69.42 66.6123 70.9431 67.1907 72.3647C67.7691 73.7864 68.6183 75.0787 69.6898 76.1679C70.7614 77.2572 72.0343 78.122 73.4359 78.713C74.8374 79.304 76.3403 79.6096 77.8585 79.6124H77.916C80.9822 79.6181 83.925 78.3899 86.0972 76.1982C88.2693 74.0065 89.4929 71.0308 89.4987 67.9255L89.5095 61.2663C89.5095 61.2031 89.4846 61.1424 89.4402 61.0973C89.3958 61.0522 89.3355 61.0265 89.2723 61.0255ZM117.429 60.986L94.7168 61.0291C94.6583 61.0301 94.6026 61.054 94.5616 61.0956C94.5206 61.1373 94.4976 61.1935 94.4976 61.2519L94.5084 67.9579C94.5141 71.0536 95.7328 74.0202 97.8962 76.2052C100.06 78.3901 102.991 79.6145 106.044 79.6088H106.174C107.686 79.606 109.183 79.3013 110.578 78.7121C111.974 78.1229 113.242 77.2608 114.309 76.1749C115.377 75.089 116.222 73.8006 116.798 72.3833C117.374 70.966 117.669 69.4476 117.666 67.9147L117.656 61.2088C117.656 61.1792 117.65 61.15 117.638 61.1227C117.627 61.0954 117.61 61.0707 117.589 61.05C117.568 61.0292 117.543 61.0129 117.516 61.0019C117.488 60.9909 117.459 60.9855 117.429 60.986ZM145.658 60.986L122.888 61.0291C122.84 61.0291 122.793 61.0484 122.759 61.0828C122.724 61.1172 122.705 61.1638 122.705 61.2124L122.716 67.8788C122.721 70.9434 123.931 73.8802 126.077 76.0435C128.223 78.2068 131.132 79.4194 134.162 79.4147H134.442C135.943 79.4124 137.429 79.111 138.815 78.5278C140.201 77.9446 141.46 77.091 142.519 76.0157C143.579 74.9405 144.418 73.6646 144.99 72.2611C145.562 70.8575 145.855 69.3538 145.852 67.8357L145.841 61.1693C145.841 61.1207 145.822 61.074 145.788 61.0397C145.753 61.0053 145.707 60.986 145.658 60.986ZM151.451 71.6666C153.122 76.7518 158.103 80.04 163.516 79.5657C164.08 79.5154 164.633 79.2135 165.251 79.1416C169.064 78.696 172.345 75.0196 173.445 71.6702C174.408 68.7449 174.07 64.4827 174.038 61.1118C174.038 61.0447 174.003 61.0111 173.934 61.0111L151.117 61.0075C150.995 61.0075 150.934 61.0686 150.934 61.1908C150.912 63.3088 150.909 65.4195 150.923 67.523C150.935 69.2528 151.111 70.634 151.451 71.6666ZM63.7171 76.7266C56.9824 86.8969 42.4924 87.0263 35.7577 76.7482C35.6835 76.6356 35.608 76.6356 35.5313 76.7482C32.1604 81.7459 27.419 84.3118 21.3073 84.446C21.1875 84.4484 21.1276 84.5095 21.1276 84.6293V165.165C21.1276 165.297 21.1935 165.363 21.3252 165.363H36.2824C36.4094 165.363 36.4729 165.301 36.4729 165.176C36.4729 151.484 36.4717 137.79 36.4693 124.096C36.4693 122.091 36.9293 120.578 39.1718 120.578C49.9387 120.568 60.7067 120.568 71.476 120.578C73.7113 120.581 74.5846 121.483 74.5846 123.787C74.587 137.625 74.587 151.45 74.5846 165.262C74.5846 165.289 74.5952 165.314 74.6141 165.333C74.6329 165.352 74.6585 165.363 74.6852 165.363H162.754C162.785 165.363 162.815 165.351 162.838 165.329C162.86 165.308 162.872 165.278 162.872 165.248V84.5394C162.872 84.4795 162.842 84.4496 162.782 84.4496C156.635 84.3298 151.86 81.7603 148.458 76.741C148.391 76.6428 148.324 76.6428 148.256 76.741C141.367 86.9904 127.168 86.9544 120.276 76.7374C120.208 76.6392 120.141 76.6404 120.074 76.741C113.214 87.0586 99.0401 86.879 92.1005 76.759C92.0311 76.6559 91.9616 76.6559 91.8921 76.759C84.9526 86.9257 70.786 87.0191 63.9112 76.7266C63.8465 76.6308 63.7818 76.6308 63.7171 76.7266ZM69.6252 125.717C69.6252 125.678 69.6097 125.64 69.5821 125.612C69.5544 125.585 69.517 125.569 69.4779 125.569H41.576C41.5369 125.569 41.4995 125.585 41.4718 125.612C41.4442 125.64 41.4287 125.678 41.4287 125.717V165.169C41.4287 165.208 41.4442 165.245 41.4718 165.273C41.4995 165.301 41.5369 165.316 41.576 165.316H69.4779C69.517 165.316 69.5544 165.301 69.5821 165.273C69.6097 165.245 69.6252 165.208 69.6252 165.169V125.717Z" fill="#282151"/>
<path id="Vector_2" d="M145.583 135.434C146.019 135.434 146.722 135.432 147.692 135.427C150.478 135.412 151.372 139.132 148.799 140.199C148.442 140.348 147.882 140.419 147.117 140.411C145.439 140.397 143.57 140.49 142.083 140.49C124.7 140.498 107.317 140.44 89.9337 140.411C88.8388 140.409 88.0505 140.264 87.569 139.976C86.0632 139.074 86.2177 136.358 87.9319 135.668C88.8232 135.305 90.2679 135.427 91.3388 135.427C91.3753 135.426 91.4101 135.411 91.4356 135.386C91.4611 135.36 91.4754 135.326 91.4754 135.29C91.4826 126.102 91.4826 116.908 91.4754 107.708C91.473 106.122 91.6263 105.019 91.9354 104.398C92.7835 102.699 94.2641 102.332 96.1868 102.332C110.866 102.33 125.544 102.328 140.221 102.328C144.257 102.332 145.374 103.762 145.367 107.604C145.346 116.811 145.347 126.018 145.371 135.226C145.371 135.365 145.442 135.434 145.583 135.434ZM140.386 107.446C140.386 107.427 140.383 107.409 140.376 107.392C140.369 107.375 140.358 107.36 140.345 107.347C140.332 107.334 140.317 107.323 140.3 107.316C140.283 107.309 140.265 107.306 140.246 107.306H96.5965C96.5781 107.306 96.5598 107.309 96.5428 107.316C96.5258 107.323 96.5104 107.334 96.4974 107.347C96.4843 107.36 96.474 107.375 96.467 107.392C96.4599 107.409 96.4563 107.427 96.4563 107.446V135.254C96.4563 135.291 96.4711 135.327 96.4974 135.353C96.5236 135.38 96.5593 135.394 96.5965 135.394H140.246C140.283 135.394 140.319 135.38 140.345 135.353C140.372 135.327 140.386 135.291 140.386 135.254V107.446Z" fill="#282151"/>
</g>
</svg>
